<mxfile host="app.diagrams.net" modified="2024-06-29T09:47:10.086Z" agent="Mozilla/5.0 (Macintosh; Intel Mac OS X 10_15_7) AppleWebKit/537.36 (KHTML, like Gecko) Chrome/126.0.0.0 Safari/537.36" etag="Xxqb9G_DC5ycgF4scCRG" version="24.5.2" type="google" pages="3">
  <diagram name="Network Map" id="u52UClhlovtRC2LWE2Hh">
    <mxGraphModel grid="1" page="1" gridSize="10" guides="1" tooltips="1" connect="1" arrows="1" fold="1" pageScale="1" pageWidth="827" pageHeight="1169" math="0" shadow="0">
      <root>
        <mxCell id="0" />
        <mxCell id="1" parent="0" />
        <mxCell id="kiyrkTiFvXkNEUn_9aag-8" value="VPC Lab (10.0.0.0/16)" style="points=[[0,0],[0.25,0],[0.5,0],[0.75,0],[1,0],[1,0.25],[1,0.5],[1,0.75],[1,1],[0.75,1],[0.5,1],[0.25,1],[0,1],[0,0.75],[0,0.5],[0,0.25]];outlineConnect=0;gradientColor=none;html=1;whiteSpace=wrap;fontSize=12;fontStyle=0;container=1;pointerEvents=0;collapsible=0;recursiveResize=0;shape=mxgraph.aws4.group;grIcon=mxgraph.aws4.group_vpc2;strokeColor=#8C4FFF;fillColor=none;verticalAlign=top;align=left;spacingLeft=30;fontColor=#AAB7B8;dashed=0;" vertex="1" parent="1">
          <mxGeometry x="80" y="110" width="480" height="510" as="geometry" />
        </mxCell>
        <mxCell id="kiyrkTiFvXkNEUn_9aag-7" value="AWS Region (Ireland eu-west-1)" style="points=[[0,0],[0.25,0],[0.5,0],[0.75,0],[1,0],[1,0.25],[1,0.5],[1,0.75],[1,1],[0.75,1],[0.5,1],[0.25,1],[0,1],[0,0.75],[0,0.5],[0,0.25]];outlineConnect=0;gradientColor=none;html=1;whiteSpace=wrap;fontSize=12;fontStyle=0;container=1;pointerEvents=0;collapsible=0;recursiveResize=0;shape=mxgraph.aws4.group;grIcon=mxgraph.aws4.group_region;strokeColor=#00A4A6;fillColor=none;verticalAlign=top;align=left;spacingLeft=30;fontColor=#147EBA;dashed=1;" vertex="1" parent="1">
          <mxGeometry x="40" y="80" width="560" height="570" as="geometry" />
        </mxCell>
        <mxCell id="9pxs-e6Qr6TzbOxYMj_3-1" value="" style="edgeStyle=orthogonalEdgeStyle;rounded=0;orthogonalLoop=1;jettySize=auto;html=1;" edge="1" parent="kiyrkTiFvXkNEUn_9aag-7" source="kiyrkTiFvXkNEUn_9aag-3" target="Kh8zA44JGP4sCYZRbqNb-9">
          <mxGeometry relative="1" as="geometry" />
        </mxCell>
        <mxCell id="kiyrkTiFvXkNEUn_9aag-3" value="Firewall Subnet&lt;div&gt;&amp;nbsp; (10.0.4.0/24)&lt;/div&gt;" style="sketch=0;outlineConnect=0;gradientColor=none;html=1;whiteSpace=wrap;fontSize=12;fontStyle=0;shape=mxgraph.aws4.group;grIcon=mxgraph.aws4.group_subnet;strokeColor=#879196;fillColor=none;verticalAlign=top;align=left;spacingLeft=30;fontColor=#879196;dashed=0;" vertex="1" parent="kiyrkTiFvXkNEUn_9aag-7">
          <mxGeometry x="80" y="80" width="400" height="70" as="geometry" />
        </mxCell>
        <mxCell id="QHStfjMFoh4-cu8spKnY-4" value="" style="sketch=0;outlineConnect=0;fontColor=#232F3E;gradientColor=none;fillColor=#8C4FFF;strokeColor=none;dashed=0;verticalLabelPosition=bottom;verticalAlign=top;align=center;html=1;fontSize=12;fontStyle=0;aspect=fixed;pointerEvents=1;shape=mxgraph.aws4.internet_gateway;" vertex="1" parent="kiyrkTiFvXkNEUn_9aag-7">
          <mxGeometry x="254" y="-8" width="48" height="48" as="geometry" />
        </mxCell>
        <mxCell id="Kh8zA44JGP4sCYZRbqNb-16" value="Lab Firewall" style="text;html=1;align=center;verticalAlign=middle;resizable=0;points=[];autosize=1;strokeColor=none;fillColor=none;" vertex="1" parent="kiyrkTiFvXkNEUn_9aag-7">
          <mxGeometry x="299" y="100" width="90" height="30" as="geometry" />
        </mxCell>
        <mxCell id="Xktt-XuFnCJCRV7KYSCy-3" value="port:3306" style="text;html=1;align=center;verticalAlign=middle;resizable=0;points=[];autosize=1;strokeColor=none;fillColor=none;" vertex="1" parent="kiyrkTiFvXkNEUn_9aag-7">
          <mxGeometry x="208" y="290" width="70" height="30" as="geometry" />
        </mxCell>
        <mxCell id="QHStfjMFoh4-cu8spKnY-7" value="Private subnets&amp;nbsp; &amp;nbsp; &amp;nbsp; &amp;nbsp;(10.0.2.0/24, 10.0.3.0/24)" style="points=[[0,0],[0.25,0],[0.5,0],[0.75,0],[1,0],[1,0.25],[1,0.5],[1,0.75],[1,1],[0.75,1],[0.5,1],[0.25,1],[0,1],[0,0.75],[0,0.5],[0,0.25]];outlineConnect=0;gradientColor=none;html=1;whiteSpace=wrap;fontSize=12;fontStyle=0;container=1;pointerEvents=0;collapsible=0;recursiveResize=0;shape=mxgraph.aws4.group;grIcon=mxgraph.aws4.group_security_group;grStroke=0;strokeColor=#00A4A6;fillColor=#E6F6F7;verticalAlign=top;align=left;spacingLeft=30;fontColor=#147EBA;dashed=0;" vertex="1" parent="kiyrkTiFvXkNEUn_9aag-7">
          <mxGeometry x="80" y="430" width="400" height="90" as="geometry" />
        </mxCell>
        <mxCell id="Kh8zA44JGP4sCYZRbqNb-6" value="" style="sketch=0;outlineConnect=0;fontColor=#232F3E;gradientColor=none;fillColor=#C925D1;strokeColor=none;dashed=0;verticalLabelPosition=bottom;verticalAlign=top;align=center;html=1;fontSize=12;fontStyle=0;aspect=fixed;pointerEvents=1;shape=mxgraph.aws4.rds_multi_az;" vertex="1" parent="QHStfjMFoh4-cu8spKnY-7">
          <mxGeometry x="113" y="40.00000000000001" width="38" height="28.26" as="geometry" />
        </mxCell>
        <mxCell id="Kh8zA44JGP4sCYZRbqNb-15" value="Lab Database" style="text;html=1;align=center;verticalAlign=middle;resizable=0;points=[];autosize=1;strokeColor=none;fillColor=none;" vertex="1" parent="QHStfjMFoh4-cu8spKnY-7">
          <mxGeometry x="162" y="39.129999999999995" width="100" height="30" as="geometry" />
        </mxCell>
        <mxCell id="QHStfjMFoh4-cu8spKnY-6" value="Protected subnet (10.0.1.0/24)" style="points=[[0,0],[0.25,0],[0.5,0],[0.75,0],[1,0],[1,0.25],[1,0.5],[1,0.75],[1,1],[0.75,1],[0.5,1],[0.25,1],[0,1],[0,0.75],[0,0.5],[0,0.25]];outlineConnect=0;gradientColor=none;html=1;whiteSpace=wrap;fontSize=12;fontStyle=0;container=1;pointerEvents=0;collapsible=0;recursiveResize=0;shape=mxgraph.aws4.group;grIcon=mxgraph.aws4.group_security_group;grStroke=0;strokeColor=#7AA116;fillColor=#F2F6E8;verticalAlign=top;align=left;spacingLeft=30;fontColor=#248814;dashed=0;" vertex="1" parent="kiyrkTiFvXkNEUn_9aag-7">
          <mxGeometry x="80" y="190" width="400" height="210" as="geometry" />
        </mxCell>
        <mxCell id="Kh8zA44JGP4sCYZRbqNb-7" value="Lab WebAppServer Instance" style="text;html=1;align=center;verticalAlign=middle;resizable=0;points=[];autosize=1;strokeColor=none;fillColor=none;" vertex="1" parent="QHStfjMFoh4-cu8spKnY-6">
          <mxGeometry x="158" y="145" width="180" height="30" as="geometry" />
        </mxCell>
        <mxCell id="kiyrkTiFvXkNEUn_9aag-12" value="" style="sketch=0;points=[[0,0,0],[0.25,0,0],[0.5,0,0],[0.75,0,0],[1,0,0],[0,1,0],[0.25,1,0],[0.5,1,0],[0.75,1,0],[1,1,0],[0,0.25,0],[0,0.5,0],[0,0.75,0],[1,0.25,0],[1,0.5,0],[1,0.75,0]];outlineConnect=0;fontColor=#232F3E;fillColor=#ED7100;strokeColor=#ffffff;dashed=0;verticalLabelPosition=bottom;verticalAlign=top;align=center;html=1;fontSize=12;fontStyle=0;aspect=fixed;shape=mxgraph.aws4.resourceIcon;resIcon=mxgraph.aws4.ec2;" vertex="1" parent="QHStfjMFoh4-cu8spKnY-6">
          <mxGeometry x="112" y="140" width="38" height="38" as="geometry" />
        </mxCell>
        <mxCell id="kiyrkTiFvXkNEUn_9aag-11" value="" style="sketch=0;points=[[0,0,0],[0.25,0,0],[0.5,0,0],[0.75,0,0],[1,0,0],[0,1,0],[0.25,1,0],[0.5,1,0],[0.75,1,0],[1,1,0],[0,0.25,0],[0,0.5,0],[0,0.75,0],[1,0.25,0],[1,0.5,0],[1,0.75,0]];outlineConnect=0;fontColor=#232F3E;fillColor=#ED7100;strokeColor=#ffffff;dashed=0;verticalLabelPosition=bottom;verticalAlign=top;align=center;html=1;fontSize=12;fontStyle=0;aspect=fixed;shape=mxgraph.aws4.resourceIcon;resIcon=mxgraph.aws4.ec2;" vertex="1" parent="QHStfjMFoh4-cu8spKnY-6">
          <mxGeometry x="111.5" y="90" width="38" height="38" as="geometry" />
        </mxCell>
        <mxCell id="kiyrkTiFvXkNEUn_9aag-1" value="" style="sketch=0;points=[[0,0,0],[0.25,0,0],[0.5,0,0],[0.75,0,0],[1,0,0],[0,1,0],[0.25,1,0],[0.5,1,0],[0.75,1,0],[1,1,0],[0,0.25,0],[0,0.5,0],[0,0.75,0],[1,0.25,0],[1,0.5,0],[1,0.75,0]];outlineConnect=0;fontColor=#232F3E;fillColor=#ED7100;strokeColor=#ffffff;dashed=0;verticalLabelPosition=bottom;verticalAlign=top;align=center;html=1;fontSize=12;fontStyle=0;aspect=fixed;shape=mxgraph.aws4.resourceIcon;resIcon=mxgraph.aws4.ec2;" vertex="1" parent="QHStfjMFoh4-cu8spKnY-6">
          <mxGeometry x="111.5" y="40" width="38" height="38" as="geometry" />
        </mxCell>
        <mxCell id="Kh8zA44JGP4sCYZRbqNb-8" value="Lab MailServer Instance" style="text;html=1;align=center;verticalAlign=middle;resizable=0;points=[];autosize=1;strokeColor=none;fillColor=none;" vertex="1" parent="QHStfjMFoh4-cu8spKnY-6">
          <mxGeometry x="161" y="94" width="150" height="30" as="geometry" />
        </mxCell>
        <mxCell id="Kh8zA44JGP4sCYZRbqNb-9" value="Lab WindowsServer Instance" style="text;html=1;align=center;verticalAlign=middle;resizable=0;points=[];autosize=1;strokeColor=none;fillColor=none;" vertex="1" parent="QHStfjMFoh4-cu8spKnY-6">
          <mxGeometry x="159" y="43" width="180" height="30" as="geometry" />
        </mxCell>
        <mxCell id="Kh8zA44JGP4sCYZRbqNb-13" value="" style="endArrow=classic;startArrow=classic;html=1;rounded=0;entryX=0.5;entryY=1;entryDx=0;entryDy=0;entryPerimeter=0;strokeColor=#336600;" edge="1" parent="kiyrkTiFvXkNEUn_9aag-7" source="Kh8zA44JGP4sCYZRbqNb-6" target="kiyrkTiFvXkNEUn_9aag-12">
          <mxGeometry width="50" height="50" relative="1" as="geometry">
            <mxPoint x="200" y="360" as="sourcePoint" />
            <mxPoint x="250" y="310" as="targetPoint" />
          </mxGeometry>
        </mxCell>
        <mxCell id="QHStfjMFoh4-cu8spKnY-1" value="" style="sketch=0;points=[[0,0,0],[0.25,0,0],[0.5,0,0],[0.75,0,0],[1,0,0],[0,1,0],[0.25,1,0],[0.5,1,0],[0.75,1,0],[1,1,0],[0,0.25,0],[0,0.5,0],[0,0.75,0],[1,0.25,0],[1,0.5,0],[1,0.75,0]];outlineConnect=0;fontColor=#232F3E;fillColor=#DD344C;strokeColor=#ffffff;dashed=0;verticalLabelPosition=bottom;verticalAlign=top;align=center;html=1;fontSize=12;fontStyle=0;aspect=fixed;shape=mxgraph.aws4.resourceIcon;resIcon=mxgraph.aws4.network_firewall;" vertex="1" parent="kiyrkTiFvXkNEUn_9aag-7">
          <mxGeometry x="259" y="94" width="42" height="42" as="geometry" />
        </mxCell>
        <mxCell id="Xktt-XuFnCJCRV7KYSCy-2" value="" style="endArrow=classic;startArrow=classic;html=1;rounded=0;strokeColor=#336600;" edge="1" parent="kiyrkTiFvXkNEUn_9aag-7" source="QHStfjMFoh4-cu8spKnY-4" target="kiyrkTiFvXkNEUn_9aag-3">
          <mxGeometry width="50" height="50" relative="1" as="geometry">
            <mxPoint x="222" y="370" as="sourcePoint" />
            <mxPoint x="270" y="80" as="targetPoint" />
          </mxGeometry>
        </mxCell>
        <mxCell id="Kh8zA44JGP4sCYZRbqNb-17" value="" style="shape=table;startSize=20;container=1;collapsible=0;childLayout=tableLayout;strokeColor=default;fontSize=16;fillColor=#E6D0DE;" vertex="1" parent="1">
          <mxGeometry x="-120" y="344" width="190" height="80" as="geometry" />
        </mxCell>
        <mxCell id="Kh8zA44JGP4sCYZRbqNb-35" style="shape=tableRow;horizontal=0;startSize=0;swimlaneHead=0;swimlaneBody=0;strokeColor=inherit;top=0;left=0;bottom=0;right=0;collapsible=0;dropTarget=0;fillColor=#CCCCCC;points=[[0,0.5],[1,0.5]];portConstraint=eastwest;fontSize=16;" vertex="1" parent="Kh8zA44JGP4sCYZRbqNb-17">
          <mxGeometry y="20" width="190" height="20" as="geometry" />
        </mxCell>
        <mxCell id="Kh8zA44JGP4sCYZRbqNb-36" style="shape=partialRectangle;html=1;whiteSpace=wrap;connectable=0;strokeColor=inherit;overflow=hidden;fillColor=none;top=0;left=0;bottom=0;right=0;pointerEvents=1;fontSize=16;" vertex="1" parent="Kh8zA44JGP4sCYZRbqNb-35">
          <mxGeometry width="95" height="20" as="geometry">
            <mxRectangle width="95" height="20" as="alternateBounds" />
          </mxGeometry>
        </mxCell>
        <mxCell id="Kh8zA44JGP4sCYZRbqNb-37" style="shape=partialRectangle;html=1;whiteSpace=wrap;connectable=0;strokeColor=inherit;overflow=hidden;fillColor=none;top=0;left=0;bottom=0;right=0;pointerEvents=1;fontSize=16;" vertex="1" parent="Kh8zA44JGP4sCYZRbqNb-35">
          <mxGeometry x="95" width="95" height="20" as="geometry">
            <mxRectangle width="95" height="20" as="alternateBounds" />
          </mxGeometry>
        </mxCell>
        <mxCell id="Kh8zA44JGP4sCYZRbqNb-18" value="" style="shape=tableRow;horizontal=0;startSize=0;swimlaneHead=0;swimlaneBody=0;strokeColor=inherit;top=0;left=0;bottom=0;right=0;collapsible=0;dropTarget=0;fillColor=none;points=[[0,0.5],[1,0.5]];portConstraint=eastwest;fontSize=16;" vertex="1" parent="Kh8zA44JGP4sCYZRbqNb-17">
          <mxGeometry y="40" width="190" height="20" as="geometry" />
        </mxCell>
        <mxCell id="Kh8zA44JGP4sCYZRbqNb-19" value="" style="shape=partialRectangle;html=1;whiteSpace=wrap;connectable=0;strokeColor=inherit;overflow=hidden;fillColor=none;top=0;left=0;bottom=0;right=0;pointerEvents=1;fontSize=16;" vertex="1" parent="Kh8zA44JGP4sCYZRbqNb-18">
          <mxGeometry width="95" height="20" as="geometry">
            <mxRectangle width="95" height="20" as="alternateBounds" />
          </mxGeometry>
        </mxCell>
        <mxCell id="Kh8zA44JGP4sCYZRbqNb-20" value="" style="shape=partialRectangle;html=1;whiteSpace=wrap;connectable=0;strokeColor=inherit;overflow=hidden;fillColor=none;top=0;left=0;bottom=0;right=0;pointerEvents=1;fontSize=16;" vertex="1" parent="Kh8zA44JGP4sCYZRbqNb-18">
          <mxGeometry x="95" width="95" height="20" as="geometry">
            <mxRectangle width="95" height="20" as="alternateBounds" />
          </mxGeometry>
        </mxCell>
        <mxCell id="Kh8zA44JGP4sCYZRbqNb-22" value="" style="shape=tableRow;horizontal=0;startSize=0;swimlaneHead=0;swimlaneBody=0;strokeColor=inherit;top=0;left=0;bottom=0;right=0;collapsible=0;dropTarget=0;fillColor=none;points=[[0,0.5],[1,0.5]];portConstraint=eastwest;fontSize=16;" vertex="1" parent="Kh8zA44JGP4sCYZRbqNb-17">
          <mxGeometry y="60" width="190" height="20" as="geometry" />
        </mxCell>
        <mxCell id="Kh8zA44JGP4sCYZRbqNb-23" value="" style="shape=partialRectangle;html=1;whiteSpace=wrap;connectable=0;strokeColor=inherit;overflow=hidden;fillColor=none;top=0;left=0;bottom=0;right=0;pointerEvents=1;fontSize=16;" vertex="1" parent="Kh8zA44JGP4sCYZRbqNb-22">
          <mxGeometry width="95" height="20" as="geometry">
            <mxRectangle width="95" height="20" as="alternateBounds" />
          </mxGeometry>
        </mxCell>
        <mxCell id="Kh8zA44JGP4sCYZRbqNb-24" value="" style="shape=partialRectangle;html=1;whiteSpace=wrap;connectable=0;strokeColor=inherit;overflow=hidden;fillColor=none;top=0;left=0;bottom=0;right=0;pointerEvents=1;fontSize=16;" vertex="1" parent="Kh8zA44JGP4sCYZRbqNb-22">
          <mxGeometry x="95" width="95" height="20" as="geometry">
            <mxRectangle width="95" height="20" as="alternateBounds" />
          </mxGeometry>
        </mxCell>
        <mxCell id="Kh8zA44JGP4sCYZRbqNb-30" value="&lt;b&gt;Protected Lab Route Table&lt;/b&gt;" style="text;html=1;align=center;verticalAlign=middle;resizable=0;points=[];autosize=1;strokeColor=none;fillColor=none;" vertex="1" parent="1">
          <mxGeometry x="-110" y="338" width="170" height="30" as="geometry" />
        </mxCell>
        <mxCell id="Kh8zA44JGP4sCYZRbqNb-31" value="0.0.0.0/0" style="text;html=1;align=center;verticalAlign=middle;resizable=0;points=[];autosize=1;strokeColor=none;fillColor=none;" vertex="1" parent="1">
          <mxGeometry x="-110" y="400" width="70" height="30" as="geometry" />
        </mxCell>
        <mxCell id="Kh8zA44JGP4sCYZRbqNb-32" value="Firewall" style="text;html=1;align=center;verticalAlign=middle;resizable=0;points=[];autosize=1;strokeColor=none;fillColor=none;" vertex="1" parent="1">
          <mxGeometry x="-5" y="400" width="60" height="30" as="geometry" />
        </mxCell>
        <mxCell id="Kh8zA44JGP4sCYZRbqNb-33" value="10.0.0.0/16" style="text;html=1;align=center;verticalAlign=middle;resizable=0;points=[];autosize=1;strokeColor=none;fillColor=none;" vertex="1" parent="1">
          <mxGeometry x="-113" y="380" width="80" height="30" as="geometry" />
        </mxCell>
        <mxCell id="Kh8zA44JGP4sCYZRbqNb-34" value="local" style="text;html=1;align=center;verticalAlign=middle;resizable=0;points=[];autosize=1;strokeColor=none;fillColor=none;" vertex="1" parent="1">
          <mxGeometry x="-2" y="379" width="50" height="30" as="geometry" />
        </mxCell>
        <mxCell id="Kh8zA44JGP4sCYZRbqNb-38" value="Destination" style="text;html=1;align=center;verticalAlign=middle;resizable=0;points=[];autosize=1;strokeColor=none;fillColor=none;" vertex="1" parent="1">
          <mxGeometry x="-112" y="360" width="80" height="30" as="geometry" />
        </mxCell>
        <mxCell id="Kh8zA44JGP4sCYZRbqNb-39" value="Target" style="text;html=1;align=center;verticalAlign=middle;resizable=0;points=[];autosize=1;strokeColor=none;fillColor=none;" vertex="1" parent="1">
          <mxGeometry x="-7" y="360" width="60" height="30" as="geometry" />
        </mxCell>
        <mxCell id="Kh8zA44JGP4sCYZRbqNb-40" value="" style="endArrow=none;html=1;rounded=0;entryX=1;entryY=0.5;entryDx=0;entryDy=0;" edge="1" parent="1" source="QHStfjMFoh4-cu8spKnY-6" target="Kh8zA44JGP4sCYZRbqNb-35">
          <mxGeometry width="50" height="50" relative="1" as="geometry">
            <mxPoint x="120" y="270" as="sourcePoint" />
            <mxPoint x="630" y="310" as="targetPoint" />
          </mxGeometry>
        </mxCell>
        <mxCell id="Kh8zA44JGP4sCYZRbqNb-42" value="" style="shape=table;startSize=20;container=1;collapsible=0;childLayout=tableLayout;strokeColor=default;fontSize=16;fillColor=#E6D0DE;" vertex="1" parent="1">
          <mxGeometry x="-120" y="525" width="190" height="60" as="geometry" />
        </mxCell>
        <mxCell id="Kh8zA44JGP4sCYZRbqNb-43" style="shape=tableRow;horizontal=0;startSize=0;swimlaneHead=0;swimlaneBody=0;strokeColor=inherit;top=0;left=0;bottom=0;right=0;collapsible=0;dropTarget=0;fillColor=#CCCCCC;points=[[0,0.5],[1,0.5]];portConstraint=eastwest;fontSize=16;" vertex="1" parent="Kh8zA44JGP4sCYZRbqNb-42">
          <mxGeometry y="20" width="190" height="20" as="geometry" />
        </mxCell>
        <mxCell id="Kh8zA44JGP4sCYZRbqNb-44" style="shape=partialRectangle;html=1;whiteSpace=wrap;connectable=0;strokeColor=inherit;overflow=hidden;fillColor=none;top=0;left=0;bottom=0;right=0;pointerEvents=1;fontSize=16;" vertex="1" parent="Kh8zA44JGP4sCYZRbqNb-43">
          <mxGeometry width="95" height="20" as="geometry">
            <mxRectangle width="95" height="20" as="alternateBounds" />
          </mxGeometry>
        </mxCell>
        <mxCell id="Kh8zA44JGP4sCYZRbqNb-45" style="shape=partialRectangle;html=1;whiteSpace=wrap;connectable=0;strokeColor=inherit;overflow=hidden;fillColor=none;top=0;left=0;bottom=0;right=0;pointerEvents=1;fontSize=16;" vertex="1" parent="Kh8zA44JGP4sCYZRbqNb-43">
          <mxGeometry x="95" width="95" height="20" as="geometry">
            <mxRectangle width="95" height="20" as="alternateBounds" />
          </mxGeometry>
        </mxCell>
        <mxCell id="Kh8zA44JGP4sCYZRbqNb-46" value="" style="shape=tableRow;horizontal=0;startSize=0;swimlaneHead=0;swimlaneBody=0;strokeColor=inherit;top=0;left=0;bottom=0;right=0;collapsible=0;dropTarget=0;fillColor=none;points=[[0,0.5],[1,0.5]];portConstraint=eastwest;fontSize=16;" vertex="1" parent="Kh8zA44JGP4sCYZRbqNb-42">
          <mxGeometry y="40" width="190" height="20" as="geometry" />
        </mxCell>
        <mxCell id="Kh8zA44JGP4sCYZRbqNb-47" value="" style="shape=partialRectangle;html=1;whiteSpace=wrap;connectable=0;strokeColor=inherit;overflow=hidden;fillColor=none;top=0;left=0;bottom=0;right=0;pointerEvents=1;fontSize=16;" vertex="1" parent="Kh8zA44JGP4sCYZRbqNb-46">
          <mxGeometry width="95" height="20" as="geometry">
            <mxRectangle width="95" height="20" as="alternateBounds" />
          </mxGeometry>
        </mxCell>
        <mxCell id="Kh8zA44JGP4sCYZRbqNb-48" value="" style="shape=partialRectangle;html=1;whiteSpace=wrap;connectable=0;strokeColor=inherit;overflow=hidden;fillColor=none;top=0;left=0;bottom=0;right=0;pointerEvents=1;fontSize=16;" vertex="1" parent="Kh8zA44JGP4sCYZRbqNb-46">
          <mxGeometry x="95" width="95" height="20" as="geometry">
            <mxRectangle width="95" height="20" as="alternateBounds" />
          </mxGeometry>
        </mxCell>
        <mxCell id="Kh8zA44JGP4sCYZRbqNb-52" value="&lt;b&gt;Private Lab Route Table&lt;/b&gt;" style="text;html=1;align=center;verticalAlign=middle;resizable=0;points=[];autosize=1;strokeColor=none;fillColor=none;" vertex="1" parent="1">
          <mxGeometry x="-105" y="519" width="160" height="30" as="geometry" />
        </mxCell>
        <mxCell id="Kh8zA44JGP4sCYZRbqNb-55" value="10.0.0.0/16" style="text;html=1;align=center;verticalAlign=middle;resizable=0;points=[];autosize=1;strokeColor=none;fillColor=none;" vertex="1" parent="1">
          <mxGeometry x="-110" y="561" width="80" height="30" as="geometry" />
        </mxCell>
        <mxCell id="Kh8zA44JGP4sCYZRbqNb-56" value="local" style="text;html=1;align=center;verticalAlign=middle;resizable=0;points=[];autosize=1;strokeColor=none;fillColor=none;" vertex="1" parent="1">
          <mxGeometry x="-2" y="561" width="50" height="30" as="geometry" />
        </mxCell>
        <mxCell id="Kh8zA44JGP4sCYZRbqNb-57" value="Destination" style="text;html=1;align=center;verticalAlign=middle;resizable=0;points=[];autosize=1;strokeColor=none;fillColor=none;" vertex="1" parent="1">
          <mxGeometry x="-111" y="541" width="80" height="30" as="geometry" />
        </mxCell>
        <mxCell id="Kh8zA44JGP4sCYZRbqNb-58" value="Target" style="text;html=1;align=center;verticalAlign=middle;resizable=0;points=[];autosize=1;strokeColor=none;fillColor=none;" vertex="1" parent="1">
          <mxGeometry x="-9" y="541" width="60" height="30" as="geometry" />
        </mxCell>
        <mxCell id="Kh8zA44JGP4sCYZRbqNb-59" value="" style="endArrow=none;html=1;rounded=0;entryX=1;entryY=0.5;entryDx=0;entryDy=0;exitX=0;exitY=0.5;exitDx=0;exitDy=0;" edge="1" parent="1" source="QHStfjMFoh4-cu8spKnY-7" target="Kh8zA44JGP4sCYZRbqNb-43">
          <mxGeometry width="50" height="50" relative="1" as="geometry">
            <mxPoint x="110" y="446" as="sourcePoint" />
            <mxPoint x="620" y="486" as="targetPoint" />
          </mxGeometry>
        </mxCell>
        <mxCell id="Kh8zA44JGP4sCYZRbqNb-75" value="VPC Internet Gateway Lab" style="text;html=1;align=center;verticalAlign=middle;resizable=0;points=[];autosize=1;strokeColor=none;fillColor=none;" vertex="1" parent="1">
          <mxGeometry x="244" y="46" width="170" height="30" as="geometry" />
        </mxCell>
        <mxCell id="Kh8zA44JGP4sCYZRbqNb-72" value="" style="endArrow=none;html=1;rounded=0;entryX=0;entryY=0.5;entryDx=0;entryDy=0;" edge="1" parent="1" source="kiyrkTiFvXkNEUn_9aag-3">
          <mxGeometry width="50" height="50" relative="1" as="geometry">
            <mxPoint x="130" y="460" as="sourcePoint" />
            <mxPoint x="600" y="194" as="targetPoint" />
          </mxGeometry>
        </mxCell>
        <mxCell id="Trtc6zbqIBiCo4QHHXyc-6" value="" style="endArrow=classic;startArrow=classic;html=1;rounded=0;strokeColor=#336600;entryX=0.5;entryY=0;entryDx=0;entryDy=0;" edge="1" parent="1" target="QHStfjMFoh4-cu8spKnY-6">
          <mxGeometry width="50" height="50" relative="1" as="geometry">
            <mxPoint x="320" y="230" as="sourcePoint" />
            <mxPoint x="320" y="170" as="targetPoint" />
          </mxGeometry>
        </mxCell>
        <mxCell id="Trtc6zbqIBiCo4QHHXyc-8" value="" style="shape=table;startSize=20;container=1;collapsible=0;childLayout=tableLayout;strokeColor=default;fontSize=16;fillColor=#E6D0DE;" vertex="1" parent="1">
          <mxGeometry x="588" y="156" width="190" height="80" as="geometry" />
        </mxCell>
        <mxCell id="Trtc6zbqIBiCo4QHHXyc-9" style="shape=tableRow;horizontal=0;startSize=0;swimlaneHead=0;swimlaneBody=0;strokeColor=inherit;top=0;left=0;bottom=0;right=0;collapsible=0;dropTarget=0;fillColor=#CCCCCC;points=[[0,0.5],[1,0.5]];portConstraint=eastwest;fontSize=16;" vertex="1" parent="Trtc6zbqIBiCo4QHHXyc-8">
          <mxGeometry y="20" width="190" height="20" as="geometry" />
        </mxCell>
        <mxCell id="Trtc6zbqIBiCo4QHHXyc-10" style="shape=partialRectangle;html=1;whiteSpace=wrap;connectable=0;strokeColor=inherit;overflow=hidden;fillColor=none;top=0;left=0;bottom=0;right=0;pointerEvents=1;fontSize=16;" vertex="1" parent="Trtc6zbqIBiCo4QHHXyc-9">
          <mxGeometry width="95" height="20" as="geometry">
            <mxRectangle width="95" height="20" as="alternateBounds" />
          </mxGeometry>
        </mxCell>
        <mxCell id="Trtc6zbqIBiCo4QHHXyc-11" style="shape=partialRectangle;html=1;whiteSpace=wrap;connectable=0;strokeColor=inherit;overflow=hidden;fillColor=none;top=0;left=0;bottom=0;right=0;pointerEvents=1;fontSize=16;" vertex="1" parent="Trtc6zbqIBiCo4QHHXyc-9">
          <mxGeometry x="95" width="95" height="20" as="geometry">
            <mxRectangle width="95" height="20" as="alternateBounds" />
          </mxGeometry>
        </mxCell>
        <mxCell id="Trtc6zbqIBiCo4QHHXyc-12" value="" style="shape=tableRow;horizontal=0;startSize=0;swimlaneHead=0;swimlaneBody=0;strokeColor=inherit;top=0;left=0;bottom=0;right=0;collapsible=0;dropTarget=0;fillColor=none;points=[[0,0.5],[1,0.5]];portConstraint=eastwest;fontSize=16;" vertex="1" parent="Trtc6zbqIBiCo4QHHXyc-8">
          <mxGeometry y="40" width="190" height="20" as="geometry" />
        </mxCell>
        <mxCell id="Trtc6zbqIBiCo4QHHXyc-13" value="" style="shape=partialRectangle;html=1;whiteSpace=wrap;connectable=0;strokeColor=inherit;overflow=hidden;fillColor=none;top=0;left=0;bottom=0;right=0;pointerEvents=1;fontSize=16;" vertex="1" parent="Trtc6zbqIBiCo4QHHXyc-12">
          <mxGeometry width="95" height="20" as="geometry">
            <mxRectangle width="95" height="20" as="alternateBounds" />
          </mxGeometry>
        </mxCell>
        <mxCell id="Trtc6zbqIBiCo4QHHXyc-14" value="" style="shape=partialRectangle;html=1;whiteSpace=wrap;connectable=0;strokeColor=inherit;overflow=hidden;fillColor=none;top=0;left=0;bottom=0;right=0;pointerEvents=1;fontSize=16;" vertex="1" parent="Trtc6zbqIBiCo4QHHXyc-12">
          <mxGeometry x="95" width="95" height="20" as="geometry">
            <mxRectangle width="95" height="20" as="alternateBounds" />
          </mxGeometry>
        </mxCell>
        <mxCell id="Trtc6zbqIBiCo4QHHXyc-15" value="" style="shape=tableRow;horizontal=0;startSize=0;swimlaneHead=0;swimlaneBody=0;strokeColor=inherit;top=0;left=0;bottom=0;right=0;collapsible=0;dropTarget=0;fillColor=none;points=[[0,0.5],[1,0.5]];portConstraint=eastwest;fontSize=16;" vertex="1" parent="Trtc6zbqIBiCo4QHHXyc-8">
          <mxGeometry y="60" width="190" height="20" as="geometry" />
        </mxCell>
        <mxCell id="Trtc6zbqIBiCo4QHHXyc-16" value="" style="shape=partialRectangle;html=1;whiteSpace=wrap;connectable=0;strokeColor=inherit;overflow=hidden;fillColor=none;top=0;left=0;bottom=0;right=0;pointerEvents=1;fontSize=16;" vertex="1" parent="Trtc6zbqIBiCo4QHHXyc-15">
          <mxGeometry width="95" height="20" as="geometry">
            <mxRectangle width="95" height="20" as="alternateBounds" />
          </mxGeometry>
        </mxCell>
        <mxCell id="Trtc6zbqIBiCo4QHHXyc-17" value="" style="shape=partialRectangle;html=1;whiteSpace=wrap;connectable=0;strokeColor=inherit;overflow=hidden;fillColor=none;top=0;left=0;bottom=0;right=0;pointerEvents=1;fontSize=16;" vertex="1" parent="Trtc6zbqIBiCo4QHHXyc-15">
          <mxGeometry x="95" width="95" height="20" as="geometry">
            <mxRectangle width="95" height="20" as="alternateBounds" />
          </mxGeometry>
        </mxCell>
        <mxCell id="Trtc6zbqIBiCo4QHHXyc-18" value="&lt;b&gt;Firewall Lab Route Table&lt;/b&gt;" style="text;html=1;align=center;verticalAlign=middle;resizable=0;points=[];autosize=1;strokeColor=none;fillColor=none;" vertex="1" parent="1">
          <mxGeometry x="603" y="150" width="160" height="30" as="geometry" />
        </mxCell>
        <mxCell id="Trtc6zbqIBiCo4QHHXyc-19" value="10.0.0.0/16" style="text;html=1;align=center;verticalAlign=middle;resizable=0;points=[];autosize=1;strokeColor=none;fillColor=none;" vertex="1" parent="1">
          <mxGeometry x="593" y="191" width="80" height="30" as="geometry" />
        </mxCell>
        <mxCell id="Trtc6zbqIBiCo4QHHXyc-20" value="local" style="text;html=1;align=center;verticalAlign=middle;resizable=0;points=[];autosize=1;strokeColor=none;fillColor=none;" vertex="1" parent="1">
          <mxGeometry x="708" y="191" width="50" height="30" as="geometry" />
        </mxCell>
        <mxCell id="Trtc6zbqIBiCo4QHHXyc-21" value="Internet Gateway" style="text;html=1;align=center;verticalAlign=middle;resizable=0;points=[];autosize=1;strokeColor=none;fillColor=none;" vertex="1" parent="1">
          <mxGeometry x="676" y="211" width="110" height="30" as="geometry" />
        </mxCell>
        <mxCell id="Trtc6zbqIBiCo4QHHXyc-22" value="Destination" style="text;html=1;align=center;verticalAlign=middle;resizable=0;points=[];autosize=1;strokeColor=none;fillColor=none;" vertex="1" parent="1">
          <mxGeometry x="596" y="172" width="80" height="30" as="geometry" />
        </mxCell>
        <mxCell id="Trtc6zbqIBiCo4QHHXyc-23" value="Target" style="text;html=1;align=center;verticalAlign=middle;resizable=0;points=[];autosize=1;strokeColor=none;fillColor=none;" vertex="1" parent="1">
          <mxGeometry x="701" y="172" width="60" height="30" as="geometry" />
        </mxCell>
        <mxCell id="Trtc6zbqIBiCo4QHHXyc-24" value="0.0.0.0/0" style="text;html=1;align=center;verticalAlign=middle;resizable=0;points=[];autosize=1;strokeColor=none;fillColor=none;" vertex="1" parent="1">
          <mxGeometry x="599" y="211" width="70" height="30" as="geometry" />
        </mxCell>
        <mxCell id="Trtc6zbqIBiCo4QHHXyc-25" value="" style="shape=table;startSize=20;container=1;collapsible=0;childLayout=tableLayout;strokeColor=default;fontSize=16;fillColor=#E6D0DE;" vertex="1" parent="1">
          <mxGeometry x="588" y="56" width="190" height="80" as="geometry" />
        </mxCell>
        <mxCell id="Trtc6zbqIBiCo4QHHXyc-26" style="shape=tableRow;horizontal=0;startSize=0;swimlaneHead=0;swimlaneBody=0;strokeColor=inherit;top=0;left=0;bottom=0;right=0;collapsible=0;dropTarget=0;fillColor=#CCCCCC;points=[[0,0.5],[1,0.5]];portConstraint=eastwest;fontSize=16;" vertex="1" parent="Trtc6zbqIBiCo4QHHXyc-25">
          <mxGeometry y="20" width="190" height="20" as="geometry" />
        </mxCell>
        <mxCell id="Trtc6zbqIBiCo4QHHXyc-27" style="shape=partialRectangle;html=1;whiteSpace=wrap;connectable=0;strokeColor=inherit;overflow=hidden;fillColor=none;top=0;left=0;bottom=0;right=0;pointerEvents=1;fontSize=16;" vertex="1" parent="Trtc6zbqIBiCo4QHHXyc-26">
          <mxGeometry width="92" height="20" as="geometry">
            <mxRectangle width="92" height="20" as="alternateBounds" />
          </mxGeometry>
        </mxCell>
        <mxCell id="Trtc6zbqIBiCo4QHHXyc-28" style="shape=partialRectangle;html=1;whiteSpace=wrap;connectable=0;strokeColor=inherit;overflow=hidden;fillColor=none;top=0;left=0;bottom=0;right=0;pointerEvents=1;fontSize=16;" vertex="1" parent="Trtc6zbqIBiCo4QHHXyc-26">
          <mxGeometry x="92" width="98" height="20" as="geometry">
            <mxRectangle width="98" height="20" as="alternateBounds" />
          </mxGeometry>
        </mxCell>
        <mxCell id="Trtc6zbqIBiCo4QHHXyc-29" value="" style="shape=tableRow;horizontal=0;startSize=0;swimlaneHead=0;swimlaneBody=0;strokeColor=inherit;top=0;left=0;bottom=0;right=0;collapsible=0;dropTarget=0;fillColor=none;points=[[0,0.5],[1,0.5]];portConstraint=eastwest;fontSize=16;" vertex="1" parent="Trtc6zbqIBiCo4QHHXyc-25">
          <mxGeometry y="40" width="190" height="20" as="geometry" />
        </mxCell>
        <mxCell id="Trtc6zbqIBiCo4QHHXyc-30" value="" style="shape=partialRectangle;html=1;whiteSpace=wrap;connectable=0;strokeColor=inherit;overflow=hidden;fillColor=none;top=0;left=0;bottom=0;right=0;pointerEvents=1;fontSize=16;" vertex="1" parent="Trtc6zbqIBiCo4QHHXyc-29">
          <mxGeometry width="92" height="20" as="geometry">
            <mxRectangle width="92" height="20" as="alternateBounds" />
          </mxGeometry>
        </mxCell>
        <mxCell id="Trtc6zbqIBiCo4QHHXyc-31" value="" style="shape=partialRectangle;html=1;whiteSpace=wrap;connectable=0;strokeColor=inherit;overflow=hidden;fillColor=none;top=0;left=0;bottom=0;right=0;pointerEvents=1;fontSize=16;" vertex="1" parent="Trtc6zbqIBiCo4QHHXyc-29">
          <mxGeometry x="92" width="98" height="20" as="geometry">
            <mxRectangle width="98" height="20" as="alternateBounds" />
          </mxGeometry>
        </mxCell>
        <mxCell id="Trtc6zbqIBiCo4QHHXyc-32" value="" style="shape=tableRow;horizontal=0;startSize=0;swimlaneHead=0;swimlaneBody=0;strokeColor=inherit;top=0;left=0;bottom=0;right=0;collapsible=0;dropTarget=0;fillColor=none;points=[[0,0.5],[1,0.5]];portConstraint=eastwest;fontSize=16;" vertex="1" parent="Trtc6zbqIBiCo4QHHXyc-25">
          <mxGeometry y="60" width="190" height="20" as="geometry" />
        </mxCell>
        <mxCell id="Trtc6zbqIBiCo4QHHXyc-33" value="" style="shape=partialRectangle;html=1;whiteSpace=wrap;connectable=0;strokeColor=inherit;overflow=hidden;fillColor=none;top=0;left=0;bottom=0;right=0;pointerEvents=1;fontSize=16;" vertex="1" parent="Trtc6zbqIBiCo4QHHXyc-32">
          <mxGeometry width="92" height="20" as="geometry">
            <mxRectangle width="92" height="20" as="alternateBounds" />
          </mxGeometry>
        </mxCell>
        <mxCell id="Trtc6zbqIBiCo4QHHXyc-34" value="" style="shape=partialRectangle;html=1;whiteSpace=wrap;connectable=0;strokeColor=inherit;overflow=hidden;fillColor=none;top=0;left=0;bottom=0;right=0;pointerEvents=1;fontSize=16;" vertex="1" parent="Trtc6zbqIBiCo4QHHXyc-32">
          <mxGeometry x="92" width="98" height="20" as="geometry">
            <mxRectangle width="98" height="20" as="alternateBounds" />
          </mxGeometry>
        </mxCell>
        <mxCell id="Trtc6zbqIBiCo4QHHXyc-35" value="&lt;b&gt;Internet GW Lab Route Table&lt;/b&gt;" style="text;html=1;align=center;verticalAlign=middle;resizable=0;points=[];autosize=1;strokeColor=none;fillColor=none;" vertex="1" parent="1">
          <mxGeometry x="588" y="50" width="190" height="30" as="geometry" />
        </mxCell>
        <mxCell id="Trtc6zbqIBiCo4QHHXyc-36" value="10.0.0.0/16" style="text;html=1;align=center;verticalAlign=middle;resizable=0;points=[];autosize=1;strokeColor=none;fillColor=none;" vertex="1" parent="1">
          <mxGeometry x="595" y="91" width="80" height="30" as="geometry" />
        </mxCell>
        <mxCell id="Trtc6zbqIBiCo4QHHXyc-37" value="local" style="text;html=1;align=center;verticalAlign=middle;resizable=0;points=[];autosize=1;strokeColor=none;fillColor=none;" vertex="1" parent="1">
          <mxGeometry x="708" y="91" width="50" height="30" as="geometry" />
        </mxCell>
        <mxCell id="Trtc6zbqIBiCo4QHHXyc-38" value="Firewall" style="text;html=1;align=center;verticalAlign=middle;resizable=0;points=[];autosize=1;strokeColor=none;fillColor=none;" vertex="1" parent="1">
          <mxGeometry x="701" y="111" width="60" height="30" as="geometry" />
        </mxCell>
        <mxCell id="Trtc6zbqIBiCo4QHHXyc-39" value="Destination" style="text;html=1;align=center;verticalAlign=middle;resizable=0;points=[];autosize=1;strokeColor=none;fillColor=none;" vertex="1" parent="1">
          <mxGeometry x="596" y="72" width="80" height="30" as="geometry" />
        </mxCell>
        <mxCell id="Trtc6zbqIBiCo4QHHXyc-40" value="Target" style="text;html=1;align=center;verticalAlign=middle;resizable=0;points=[];autosize=1;strokeColor=none;fillColor=none;" vertex="1" parent="1">
          <mxGeometry x="701" y="72" width="60" height="30" as="geometry" />
        </mxCell>
        <mxCell id="Trtc6zbqIBiCo4QHHXyc-41" value="10.0.1.0/24" style="text;html=1;align=center;verticalAlign=middle;resizable=0;points=[];autosize=1;strokeColor=none;fillColor=none;" vertex="1" parent="1">
          <mxGeometry x="596" y="109" width="80" height="30" as="geometry" />
        </mxCell>
        <mxCell id="Trtc6zbqIBiCo4QHHXyc-42" value="" style="endArrow=none;html=1;rounded=0;entryX=-0.016;entryY=0.95;entryDx=0;entryDy=0;entryPerimeter=0;" edge="1" parent="1" source="QHStfjMFoh4-cu8spKnY-4" target="Trtc6zbqIBiCo4QHHXyc-26">
          <mxGeometry width="50" height="50" relative="1" as="geometry">
            <mxPoint x="530" y="204" as="sourcePoint" />
            <mxPoint x="610" y="204" as="targetPoint" />
          </mxGeometry>
        </mxCell>
      </root>
    </mxGraphModel>
  </diagram>
  <diagram id="V83PWTd337aXpq9o9ia2" name="SIEM - Lab">
    <mxGraphModel grid="1" page="1" gridSize="10" guides="1" tooltips="1" connect="1" arrows="1" fold="1" pageScale="1" pageWidth="827" pageHeight="1169" math="0" shadow="0">
      <root>
        <mxCell id="0" />
        <mxCell id="1" parent="0" />
        <mxCell id="mLeM-lS7A018ZV9mtOg2-79" style="edgeStyle=none;rounded=0;orthogonalLoop=1;jettySize=auto;html=1;exitX=0.5;exitY=1;exitDx=0;exitDy=0;entryX=0.5;entryY=0;entryDx=0;entryDy=0;" edge="1" parent="1" source="mLeM-lS7A018ZV9mtOg2-1" target="mLeM-lS7A018ZV9mtOg2-65">
          <mxGeometry relative="1" as="geometry" />
        </mxCell>
        <mxCell id="mLeM-lS7A018ZV9mtOg2-1" value="VPC Lab (10.0.0.0/16)" style="points=[[0,0],[0.25,0],[0.5,0],[0.75,0],[1,0],[1,0.25],[1,0.5],[1,0.75],[1,1],[0.75,1],[0.5,1],[0.25,1],[0,1],[0,0.75],[0,0.5],[0,0.25]];outlineConnect=0;gradientColor=none;html=1;whiteSpace=wrap;fontSize=12;fontStyle=0;container=1;pointerEvents=0;collapsible=0;recursiveResize=0;shape=mxgraph.aws4.group;grIcon=mxgraph.aws4.group_vpc2;strokeColor=#8C4FFF;fillColor=none;verticalAlign=top;align=left;spacingLeft=30;fontColor=#AAB7B8;dashed=0;" vertex="1" parent="1">
          <mxGeometry x="200" y="110" width="490" height="490" as="geometry" />
        </mxCell>
        <mxCell id="mLeM-lS7A018ZV9mtOg2-10" value="AWS Region (Ireland eu-west-1)" style="points=[[0,0],[0.25,0],[0.5,0],[0.75,0],[1,0],[1,0.25],[1,0.5],[1,0.75],[1,1],[0.75,1],[0.5,1],[0.25,1],[0,1],[0,0.75],[0,0.5],[0,0.25]];outlineConnect=0;gradientColor=none;html=1;whiteSpace=wrap;fontSize=12;fontStyle=0;container=1;pointerEvents=0;collapsible=0;recursiveResize=0;shape=mxgraph.aws4.group;grIcon=mxgraph.aws4.group_region;strokeColor=#00A4A6;fillColor=none;verticalAlign=top;align=left;spacingLeft=30;fontColor=#147EBA;dashed=1;" vertex="1" parent="1">
          <mxGeometry x="180" y="80" width="530" height="740" as="geometry" />
        </mxCell>
        <mxCell id="mLeM-lS7A018ZV9mtOg2-81" style="edgeStyle=none;rounded=0;orthogonalLoop=1;jettySize=auto;html=1;exitX=0.25;exitY=1;exitDx=0;exitDy=0;" edge="1" parent="mLeM-lS7A018ZV9mtOg2-10" source="mLeM-lS7A018ZV9mtOg2-65" target="mLeM-lS7A018ZV9mtOg2-65">
          <mxGeometry relative="1" as="geometry" />
        </mxCell>
        <mxCell id="mLeM-lS7A018ZV9mtOg2-65" value="VPC SIEM (172.31.0.0/16)" style="points=[[0,0],[0.25,0],[0.5,0],[0.75,0],[1,0],[1,0.25],[1,0.5],[1,0.75],[1,1],[0.75,1],[0.5,1],[0.25,1],[0,1],[0,0.75],[0,0.5],[0,0.25]];outlineConnect=0;gradientColor=none;html=1;whiteSpace=wrap;fontSize=12;fontStyle=0;container=1;pointerEvents=0;collapsible=0;recursiveResize=0;shape=mxgraph.aws4.group;grIcon=mxgraph.aws4.group_vpc2;strokeColor=#8C4FFF;fillColor=none;verticalAlign=top;align=left;spacingLeft=30;fontColor=#AAB7B8;dashed=0;" vertex="1" parent="mLeM-lS7A018ZV9mtOg2-10">
          <mxGeometry x="20" y="543" width="490" height="137" as="geometry" />
        </mxCell>
        <mxCell id="mLeM-lS7A018ZV9mtOg2-69" value="SIEM subnet (172.31.0.0/20)" style="points=[[0,0],[0.25,0],[0.5,0],[0.75,0],[1,0],[1,0.25],[1,0.5],[1,0.75],[1,1],[0.75,1],[0.5,1],[0.25,1],[0,1],[0,0.75],[0,0.5],[0,0.25]];outlineConnect=0;gradientColor=none;html=1;whiteSpace=wrap;fontSize=12;fontStyle=0;container=1;pointerEvents=0;collapsible=0;recursiveResize=0;shape=mxgraph.aws4.group;grIcon=mxgraph.aws4.group_security_group;grStroke=0;strokeColor=#7AA116;fillColor=#F2F6E8;verticalAlign=top;align=left;spacingLeft=30;fontColor=#248814;dashed=0;" vertex="1" parent="mLeM-lS7A018ZV9mtOg2-65">
          <mxGeometry x="40" y="31.5" width="410" height="88.5" as="geometry" />
        </mxCell>
        <mxCell id="mLeM-lS7A018ZV9mtOg2-73" value="" style="sketch=0;points=[[0,0,0],[0.25,0,0],[0.5,0,0],[0.75,0,0],[1,0,0],[0,1,0],[0.25,1,0],[0.5,1,0],[0.75,1,0],[1,1,0],[0,0.25,0],[0,0.5,0],[0,0.75,0],[1,0.25,0],[1,0.5,0],[1,0.75,0]];outlineConnect=0;fontColor=#232F3E;fillColor=#ED7100;strokeColor=#ffffff;dashed=0;verticalLabelPosition=bottom;verticalAlign=top;align=center;html=1;fontSize=12;fontStyle=0;aspect=fixed;shape=mxgraph.aws4.resourceIcon;resIcon=mxgraph.aws4.ec2;" vertex="1" parent="mLeM-lS7A018ZV9mtOg2-69">
          <mxGeometry x="122" y="39" width="38" height="38" as="geometry" />
        </mxCell>
        <mxCell id="mLeM-lS7A018ZV9mtOg2-75" value="SIEM Instance" style="text;html=1;align=center;verticalAlign=middle;resizable=0;points=[];autosize=1;strokeColor=none;fillColor=none;" vertex="1" parent="mLeM-lS7A018ZV9mtOg2-69">
          <mxGeometry x="172" y="43" width="100" height="30" as="geometry" />
        </mxCell>
        <mxCell id="mLeM-lS7A018ZV9mtOg2-77" style="edgeStyle=none;rounded=0;orthogonalLoop=1;jettySize=auto;html=1;entryX=0.5;entryY=0;entryDx=0;entryDy=0;" edge="1" parent="mLeM-lS7A018ZV9mtOg2-10" source="mLeM-lS7A018ZV9mtOg2-65" target="mLeM-lS7A018ZV9mtOg2-65">
          <mxGeometry relative="1" as="geometry" />
        </mxCell>
        <mxCell id="mLeM-lS7A018ZV9mtOg2-3" value="Protected subnet (10.0.1.0/24)" style="points=[[0,0],[0.25,0],[0.5,0],[0.75,0],[1,0],[1,0.25],[1,0.5],[1,0.75],[1,1],[0.75,1],[0.5,1],[0.25,1],[0,1],[0,0.75],[0,0.5],[0,0.25]];outlineConnect=0;gradientColor=none;html=1;whiteSpace=wrap;fontSize=12;fontStyle=0;container=1;pointerEvents=0;collapsible=0;recursiveResize=0;shape=mxgraph.aws4.group;grIcon=mxgraph.aws4.group_security_group;grStroke=0;strokeColor=#7AA116;fillColor=#F2F6E8;verticalAlign=top;align=left;spacingLeft=30;fontColor=#248814;dashed=0;" vertex="1" parent="mLeM-lS7A018ZV9mtOg2-10">
          <mxGeometry x="60" y="180" width="410" height="210" as="geometry" />
        </mxCell>
        <mxCell id="mLeM-lS7A018ZV9mtOg2-4" value="Lab WebAppServer Instance" style="text;html=1;align=center;verticalAlign=middle;resizable=0;points=[];autosize=1;strokeColor=none;fillColor=none;" vertex="1" parent="mLeM-lS7A018ZV9mtOg2-3">
          <mxGeometry x="158" y="145" width="180" height="30" as="geometry" />
        </mxCell>
        <mxCell id="mLeM-lS7A018ZV9mtOg2-5" value="" style="sketch=0;points=[[0,0,0],[0.25,0,0],[0.5,0,0],[0.75,0,0],[1,0,0],[0,1,0],[0.25,1,0],[0.5,1,0],[0.75,1,0],[1,1,0],[0,0.25,0],[0,0.5,0],[0,0.75,0],[1,0.25,0],[1,0.5,0],[1,0.75,0]];outlineConnect=0;fontColor=#232F3E;fillColor=#ED7100;strokeColor=#ffffff;dashed=0;verticalLabelPosition=bottom;verticalAlign=top;align=center;html=1;fontSize=12;fontStyle=0;aspect=fixed;shape=mxgraph.aws4.resourceIcon;resIcon=mxgraph.aws4.ec2;" vertex="1" parent="mLeM-lS7A018ZV9mtOg2-3">
          <mxGeometry x="112" y="140" width="38" height="38" as="geometry" />
        </mxCell>
        <mxCell id="mLeM-lS7A018ZV9mtOg2-6" value="" style="sketch=0;points=[[0,0,0],[0.25,0,0],[0.5,0,0],[0.75,0,0],[1,0,0],[0,1,0],[0.25,1,0],[0.5,1,0],[0.75,1,0],[1,1,0],[0,0.25,0],[0,0.5,0],[0,0.75,0],[1,0.25,0],[1,0.5,0],[1,0.75,0]];outlineConnect=0;fontColor=#232F3E;fillColor=#ED7100;strokeColor=#ffffff;dashed=0;verticalLabelPosition=bottom;verticalAlign=top;align=center;html=1;fontSize=12;fontStyle=0;aspect=fixed;shape=mxgraph.aws4.resourceIcon;resIcon=mxgraph.aws4.ec2;" vertex="1" parent="mLeM-lS7A018ZV9mtOg2-3">
          <mxGeometry x="111.5" y="90" width="38" height="38" as="geometry" />
        </mxCell>
        <mxCell id="mLeM-lS7A018ZV9mtOg2-7" value="" style="sketch=0;points=[[0,0,0],[0.25,0,0],[0.5,0,0],[0.75,0,0],[1,0,0],[0,1,0],[0.25,1,0],[0.5,1,0],[0.75,1,0],[1,1,0],[0,0.25,0],[0,0.5,0],[0,0.75,0],[1,0.25,0],[1,0.5,0],[1,0.75,0]];outlineConnect=0;fontColor=#232F3E;fillColor=#ED7100;strokeColor=#ffffff;dashed=0;verticalLabelPosition=bottom;verticalAlign=top;align=center;html=1;fontSize=12;fontStyle=0;aspect=fixed;shape=mxgraph.aws4.resourceIcon;resIcon=mxgraph.aws4.ec2;" vertex="1" parent="mLeM-lS7A018ZV9mtOg2-3">
          <mxGeometry x="111.5" y="40" width="38" height="38" as="geometry" />
        </mxCell>
        <mxCell id="mLeM-lS7A018ZV9mtOg2-8" value="Lab MailServer Instance" style="text;html=1;align=center;verticalAlign=middle;resizable=0;points=[];autosize=1;strokeColor=none;fillColor=none;" vertex="1" parent="mLeM-lS7A018ZV9mtOg2-3">
          <mxGeometry x="161" y="94" width="150" height="30" as="geometry" />
        </mxCell>
        <mxCell id="mLeM-lS7A018ZV9mtOg2-9" value="Lab WindowsServer Instance" style="text;html=1;align=center;verticalAlign=middle;resizable=0;points=[];autosize=1;strokeColor=none;fillColor=none;" vertex="1" parent="mLeM-lS7A018ZV9mtOg2-3">
          <mxGeometry x="159" y="43" width="180" height="30" as="geometry" />
        </mxCell>
        <mxCell id="mLeM-lS7A018ZV9mtOg2-14" value="port:3306" style="text;html=1;align=center;verticalAlign=middle;resizable=0;points=[];autosize=1;strokeColor=none;fillColor=none;" vertex="1" parent="mLeM-lS7A018ZV9mtOg2-10">
          <mxGeometry x="193" y="393" width="70" height="30" as="geometry" />
        </mxCell>
        <mxCell id="mLeM-lS7A018ZV9mtOg2-15" value="Private subnets&amp;nbsp; &amp;nbsp; &amp;nbsp; &amp;nbsp;(10.0.2.0/24, 10.0.3.0/24)" style="points=[[0,0],[0.25,0],[0.5,0],[0.75,0],[1,0],[1,0.25],[1,0.5],[1,0.75],[1,1],[0.75,1],[0.5,1],[0.25,1],[0,1],[0,0.75],[0,0.5],[0,0.25]];outlineConnect=0;gradientColor=none;html=1;whiteSpace=wrap;fontSize=12;fontStyle=0;container=1;pointerEvents=0;collapsible=0;recursiveResize=0;shape=mxgraph.aws4.group;grIcon=mxgraph.aws4.group_security_group;grStroke=0;strokeColor=#00A4A6;fillColor=#E6F6F7;verticalAlign=top;align=left;spacingLeft=30;fontColor=#147EBA;dashed=0;" vertex="1" parent="mLeM-lS7A018ZV9mtOg2-10">
          <mxGeometry x="60" y="420" width="410" height="85" as="geometry" />
        </mxCell>
        <mxCell id="mLeM-lS7A018ZV9mtOg2-16" value="" style="sketch=0;outlineConnect=0;fontColor=#232F3E;gradientColor=none;fillColor=#C925D1;strokeColor=none;dashed=0;verticalLabelPosition=bottom;verticalAlign=top;align=center;html=1;fontSize=12;fontStyle=0;aspect=fixed;pointerEvents=1;shape=mxgraph.aws4.rds_multi_az;" vertex="1" parent="mLeM-lS7A018ZV9mtOg2-15">
          <mxGeometry x="113" y="40.00000000000001" width="38" height="28.26" as="geometry" />
        </mxCell>
        <mxCell id="mLeM-lS7A018ZV9mtOg2-17" value="Lab Database" style="text;html=1;align=center;verticalAlign=middle;resizable=0;points=[];autosize=1;strokeColor=none;fillColor=none;" vertex="1" parent="mLeM-lS7A018ZV9mtOg2-15">
          <mxGeometry x="162" y="39.129999999999995" width="100" height="30" as="geometry" />
        </mxCell>
        <mxCell id="mLeM-lS7A018ZV9mtOg2-18" value="" style="endArrow=classic;startArrow=classic;html=1;rounded=0;entryX=0.5;entryY=1;entryDx=0;entryDy=0;entryPerimeter=0;strokeColor=#336600;" edge="1" parent="mLeM-lS7A018ZV9mtOg2-10" source="mLeM-lS7A018ZV9mtOg2-16" target="mLeM-lS7A018ZV9mtOg2-5">
          <mxGeometry width="50" height="50" relative="1" as="geometry">
            <mxPoint x="185" y="445" as="sourcePoint" />
            <mxPoint x="235" y="395" as="targetPoint" />
          </mxGeometry>
        </mxCell>
        <mxCell id="mLeM-lS7A018ZV9mtOg2-80" value="" style="sketch=0;outlineConnect=0;fontColor=#232F3E;gradientColor=none;fillColor=#8C4FFF;strokeColor=none;dashed=0;verticalLabelPosition=bottom;verticalAlign=top;align=center;html=1;fontSize=12;fontStyle=0;aspect=fixed;pointerEvents=1;shape=mxgraph.aws4.internet_gateway;" vertex="1" parent="mLeM-lS7A018ZV9mtOg2-10">
          <mxGeometry x="241" y="700" width="48" height="48" as="geometry" />
        </mxCell>
        <mxCell id="mLeM-lS7A018ZV9mtOg2-82" value="" style="endArrow=classic;startArrow=classic;html=1;rounded=0;strokeColor=#336600;exitX=0.5;exitY=1;exitDx=0;exitDy=0;" edge="1" parent="mLeM-lS7A018ZV9mtOg2-10" source="mLeM-lS7A018ZV9mtOg2-69" target="mLeM-lS7A018ZV9mtOg2-80">
          <mxGeometry width="50" height="50" relative="1" as="geometry">
            <mxPoint x="279" y="129" as="sourcePoint" />
            <mxPoint x="280" y="169" as="targetPoint" />
          </mxGeometry>
        </mxCell>
        <mxCell id="sLR9qQ2U9lKhxriPVtWn-1" value="Firewall Subnet&lt;div&gt;&amp;nbsp; (10.0.4.0/24)&lt;/div&gt;" style="sketch=0;outlineConnect=0;gradientColor=none;html=1;whiteSpace=wrap;fontSize=12;fontStyle=0;shape=mxgraph.aws4.group;grIcon=mxgraph.aws4.group_subnet;strokeColor=#879196;fillColor=none;verticalAlign=top;align=left;spacingLeft=30;fontColor=#879196;dashed=0;" vertex="1" parent="mLeM-lS7A018ZV9mtOg2-10">
          <mxGeometry x="60" y="80" width="410" height="70" as="geometry" />
        </mxCell>
        <mxCell id="sLR9qQ2U9lKhxriPVtWn-3" value="" style="sketch=0;points=[[0,0,0],[0.25,0,0],[0.5,0,0],[0.75,0,0],[1,0,0],[0,1,0],[0.25,1,0],[0.5,1,0],[0.75,1,0],[1,1,0],[0,0.25,0],[0,0.5,0],[0,0.75,0],[1,0.25,0],[1,0.5,0],[1,0.75,0]];outlineConnect=0;fontColor=#232F3E;fillColor=#DD344C;strokeColor=#ffffff;dashed=0;verticalLabelPosition=bottom;verticalAlign=top;align=center;html=1;fontSize=12;fontStyle=0;aspect=fixed;shape=mxgraph.aws4.resourceIcon;resIcon=mxgraph.aws4.network_firewall;" vertex="1" parent="mLeM-lS7A018ZV9mtOg2-10">
          <mxGeometry x="239" y="94" width="42" height="42" as="geometry" />
        </mxCell>
        <mxCell id="sLR9qQ2U9lKhxriPVtWn-2" value="Lab Firewall" style="text;html=1;align=center;verticalAlign=middle;resizable=0;points=[];autosize=1;strokeColor=none;fillColor=none;" vertex="1" parent="mLeM-lS7A018ZV9mtOg2-10">
          <mxGeometry x="279" y="100" width="90" height="30" as="geometry" />
        </mxCell>
        <mxCell id="mLeM-lS7A018ZV9mtOg2-12" value="" style="sketch=0;outlineConnect=0;fontColor=#232F3E;gradientColor=none;fillColor=#8C4FFF;strokeColor=none;dashed=0;verticalLabelPosition=bottom;verticalAlign=top;align=center;html=1;fontSize=12;fontStyle=0;aspect=fixed;pointerEvents=1;shape=mxgraph.aws4.internet_gateway;" vertex="1" parent="mLeM-lS7A018ZV9mtOg2-10">
          <mxGeometry x="239" y="-9" width="48" height="48" as="geometry" />
        </mxCell>
        <mxCell id="mLeM-lS7A018ZV9mtOg2-63" value="VPC Internet Gateway Lab" style="text;html=1;align=center;verticalAlign=middle;resizable=0;points=[];autosize=1;strokeColor=none;fillColor=none;" vertex="1" parent="mLeM-lS7A018ZV9mtOg2-10">
          <mxGeometry x="279" width="170" height="30" as="geometry" />
        </mxCell>
        <mxCell id="mLeM-lS7A018ZV9mtOg2-64" value="" style="endArrow=classic;startArrow=classic;html=1;rounded=0;strokeColor=#336600;" edge="1" parent="mLeM-lS7A018ZV9mtOg2-10" source="mLeM-lS7A018ZV9mtOg2-12" target="sLR9qQ2U9lKhxriPVtWn-1">
          <mxGeometry width="50" height="50" relative="1" as="geometry">
            <mxPoint x="222" y="370" as="sourcePoint" />
            <mxPoint x="270" y="80" as="targetPoint" />
          </mxGeometry>
        </mxCell>
        <mxCell id="Pk8KsVYJSIoBZeGIXByo-1" value="" style="endArrow=classic;startArrow=classic;html=1;rounded=0;strokeColor=#336600;entryX=0.5;entryY=0;entryDx=0;entryDy=0;" edge="1" parent="mLeM-lS7A018ZV9mtOg2-10" source="sLR9qQ2U9lKhxriPVtWn-1" target="mLeM-lS7A018ZV9mtOg2-3">
          <mxGeometry width="50" height="50" relative="1" as="geometry">
            <mxPoint x="140" y="150" as="sourcePoint" />
            <mxPoint x="140" y="190" as="targetPoint" />
          </mxGeometry>
        </mxCell>
      </root>
    </mxGraphModel>
  </diagram>
  <diagram name="Kali - Lab - SIEM" id="8GZtEiFw-bPvISdX0iO7">
    <mxGraphModel grid="1" page="1" gridSize="10" guides="1" tooltips="1" connect="1" arrows="1" fold="1" pageScale="1" pageWidth="827" pageHeight="1169" math="0" shadow="0">
      <root>
        <mxCell id="QsPpRkAd5M4TZ6T4kaq--0" />
        <mxCell id="QsPpRkAd5M4TZ6T4kaq--1" parent="QsPpRkAd5M4TZ6T4kaq--0" />
        <mxCell id="QsPpRkAd5M4TZ6T4kaq--2" style="edgeStyle=none;rounded=0;orthogonalLoop=1;jettySize=auto;html=1;exitX=0.5;exitY=1;exitDx=0;exitDy=0;entryX=0.5;entryY=0;entryDx=0;entryDy=0;" edge="1" parent="QsPpRkAd5M4TZ6T4kaq--1" source="QsPpRkAd5M4TZ6T4kaq--3" target="QsPpRkAd5M4TZ6T4kaq--6">
          <mxGeometry relative="1" as="geometry" />
        </mxCell>
        <mxCell id="QsPpRkAd5M4TZ6T4kaq--3" value="VPC Lab (10.0.0.0/16)" style="points=[[0,0],[0.25,0],[0.5,0],[0.75,0],[1,0],[1,0.25],[1,0.5],[1,0.75],[1,1],[0.75,1],[0.5,1],[0.25,1],[0,1],[0,0.75],[0,0.5],[0,0.25]];outlineConnect=0;gradientColor=none;html=1;whiteSpace=wrap;fontSize=12;fontStyle=0;container=1;pointerEvents=0;collapsible=0;recursiveResize=0;shape=mxgraph.aws4.group;grIcon=mxgraph.aws4.group_vpc2;strokeColor=#8C4FFF;fillColor=none;verticalAlign=top;align=left;spacingLeft=30;fontColor=#AAB7B8;dashed=0;" vertex="1" parent="QsPpRkAd5M4TZ6T4kaq--1">
          <mxGeometry x="200" y="110" width="490" height="490" as="geometry" />
        </mxCell>
        <mxCell id="QsPpRkAd5M4TZ6T4kaq--4" value="AWS Region (Ireland eu-west-1)" style="points=[[0,0],[0.25,0],[0.5,0],[0.75,0],[1,0],[1,0.25],[1,0.5],[1,0.75],[1,1],[0.75,1],[0.5,1],[0.25,1],[0,1],[0,0.75],[0,0.5],[0,0.25]];outlineConnect=0;gradientColor=none;html=1;whiteSpace=wrap;fontSize=12;fontStyle=0;container=1;pointerEvents=0;collapsible=0;recursiveResize=0;shape=mxgraph.aws4.group;grIcon=mxgraph.aws4.group_region;strokeColor=#00A4A6;fillColor=none;verticalAlign=top;align=left;spacingLeft=30;fontColor=#147EBA;dashed=1;" vertex="1" parent="QsPpRkAd5M4TZ6T4kaq--1">
          <mxGeometry x="180" y="80" width="530" height="740" as="geometry" />
        </mxCell>
        <mxCell id="QsPpRkAd5M4TZ6T4kaq--5" style="edgeStyle=none;rounded=0;orthogonalLoop=1;jettySize=auto;html=1;exitX=0.25;exitY=1;exitDx=0;exitDy=0;" edge="1" parent="QsPpRkAd5M4TZ6T4kaq--4" source="QsPpRkAd5M4TZ6T4kaq--6" target="QsPpRkAd5M4TZ6T4kaq--6">
          <mxGeometry relative="1" as="geometry" />
        </mxCell>
        <mxCell id="QsPpRkAd5M4TZ6T4kaq--6" value="VPC SIEM (172.31.0.0/16)" style="points=[[0,0],[0.25,0],[0.5,0],[0.75,0],[1,0],[1,0.25],[1,0.5],[1,0.75],[1,1],[0.75,1],[0.5,1],[0.25,1],[0,1],[0,0.75],[0,0.5],[0,0.25]];outlineConnect=0;gradientColor=none;html=1;whiteSpace=wrap;fontSize=12;fontStyle=0;container=1;pointerEvents=0;collapsible=0;recursiveResize=0;shape=mxgraph.aws4.group;grIcon=mxgraph.aws4.group_vpc2;strokeColor=#8C4FFF;fillColor=none;verticalAlign=top;align=left;spacingLeft=30;fontColor=#AAB7B8;dashed=0;" vertex="1" parent="QsPpRkAd5M4TZ6T4kaq--4">
          <mxGeometry x="20" y="543" width="490" height="137" as="geometry" />
        </mxCell>
        <mxCell id="QsPpRkAd5M4TZ6T4kaq--7" value="SIEM subnet (172.31.0.0/20)" style="points=[[0,0],[0.25,0],[0.5,0],[0.75,0],[1,0],[1,0.25],[1,0.5],[1,0.75],[1,1],[0.75,1],[0.5,1],[0.25,1],[0,1],[0,0.75],[0,0.5],[0,0.25]];outlineConnect=0;gradientColor=none;html=1;whiteSpace=wrap;fontSize=12;fontStyle=0;container=1;pointerEvents=0;collapsible=0;recursiveResize=0;shape=mxgraph.aws4.group;grIcon=mxgraph.aws4.group_security_group;grStroke=0;strokeColor=#7AA116;fillColor=#F2F6E8;verticalAlign=top;align=left;spacingLeft=30;fontColor=#248814;dashed=0;" vertex="1" parent="QsPpRkAd5M4TZ6T4kaq--6">
          <mxGeometry x="40" y="31.5" width="410" height="88.5" as="geometry" />
        </mxCell>
        <mxCell id="QsPpRkAd5M4TZ6T4kaq--8" value="" style="sketch=0;points=[[0,0,0],[0.25,0,0],[0.5,0,0],[0.75,0,0],[1,0,0],[0,1,0],[0.25,1,0],[0.5,1,0],[0.75,1,0],[1,1,0],[0,0.25,0],[0,0.5,0],[0,0.75,0],[1,0.25,0],[1,0.5,0],[1,0.75,0]];outlineConnect=0;fontColor=#232F3E;fillColor=#ED7100;strokeColor=#ffffff;dashed=0;verticalLabelPosition=bottom;verticalAlign=top;align=center;html=1;fontSize=12;fontStyle=0;aspect=fixed;shape=mxgraph.aws4.resourceIcon;resIcon=mxgraph.aws4.ec2;" vertex="1" parent="QsPpRkAd5M4TZ6T4kaq--7">
          <mxGeometry x="122" y="39" width="38" height="38" as="geometry" />
        </mxCell>
        <mxCell id="QsPpRkAd5M4TZ6T4kaq--9" value="SIEM Instance" style="text;html=1;align=center;verticalAlign=middle;resizable=0;points=[];autosize=1;strokeColor=none;fillColor=none;" vertex="1" parent="QsPpRkAd5M4TZ6T4kaq--7">
          <mxGeometry x="172" y="43" width="100" height="30" as="geometry" />
        </mxCell>
        <mxCell id="QsPpRkAd5M4TZ6T4kaq--10" style="edgeStyle=none;rounded=0;orthogonalLoop=1;jettySize=auto;html=1;entryX=0.5;entryY=0;entryDx=0;entryDy=0;" edge="1" parent="QsPpRkAd5M4TZ6T4kaq--4" source="QsPpRkAd5M4TZ6T4kaq--6" target="QsPpRkAd5M4TZ6T4kaq--6">
          <mxGeometry relative="1" as="geometry" />
        </mxCell>
        <mxCell id="QsPpRkAd5M4TZ6T4kaq--11" value="Protected subnet (10.0.1.0/24)" style="points=[[0,0],[0.25,0],[0.5,0],[0.75,0],[1,0],[1,0.25],[1,0.5],[1,0.75],[1,1],[0.75,1],[0.5,1],[0.25,1],[0,1],[0,0.75],[0,0.5],[0,0.25]];outlineConnect=0;gradientColor=none;html=1;whiteSpace=wrap;fontSize=12;fontStyle=0;container=1;pointerEvents=0;collapsible=0;recursiveResize=0;shape=mxgraph.aws4.group;grIcon=mxgraph.aws4.group_security_group;grStroke=0;strokeColor=#7AA116;fillColor=#F2F6E8;verticalAlign=top;align=left;spacingLeft=30;fontColor=#248814;dashed=0;" vertex="1" parent="QsPpRkAd5M4TZ6T4kaq--4">
          <mxGeometry x="60" y="180" width="410" height="210" as="geometry" />
        </mxCell>
        <mxCell id="QsPpRkAd5M4TZ6T4kaq--12" value="Lab WebAppServer Instance" style="text;html=1;align=center;verticalAlign=middle;resizable=0;points=[];autosize=1;strokeColor=none;fillColor=none;" vertex="1" parent="QsPpRkAd5M4TZ6T4kaq--11">
          <mxGeometry x="158" y="145" width="180" height="30" as="geometry" />
        </mxCell>
        <mxCell id="QsPpRkAd5M4TZ6T4kaq--13" value="" style="sketch=0;points=[[0,0,0],[0.25,0,0],[0.5,0,0],[0.75,0,0],[1,0,0],[0,1,0],[0.25,1,0],[0.5,1,0],[0.75,1,0],[1,1,0],[0,0.25,0],[0,0.5,0],[0,0.75,0],[1,0.25,0],[1,0.5,0],[1,0.75,0]];outlineConnect=0;fontColor=#232F3E;fillColor=#ED7100;strokeColor=#ffffff;dashed=0;verticalLabelPosition=bottom;verticalAlign=top;align=center;html=1;fontSize=12;fontStyle=0;aspect=fixed;shape=mxgraph.aws4.resourceIcon;resIcon=mxgraph.aws4.ec2;" vertex="1" parent="QsPpRkAd5M4TZ6T4kaq--11">
          <mxGeometry x="112" y="140" width="38" height="38" as="geometry" />
        </mxCell>
        <mxCell id="QsPpRkAd5M4TZ6T4kaq--14" value="" style="sketch=0;points=[[0,0,0],[0.25,0,0],[0.5,0,0],[0.75,0,0],[1,0,0],[0,1,0],[0.25,1,0],[0.5,1,0],[0.75,1,0],[1,1,0],[0,0.25,0],[0,0.5,0],[0,0.75,0],[1,0.25,0],[1,0.5,0],[1,0.75,0]];outlineConnect=0;fontColor=#232F3E;fillColor=#ED7100;strokeColor=#ffffff;dashed=0;verticalLabelPosition=bottom;verticalAlign=top;align=center;html=1;fontSize=12;fontStyle=0;aspect=fixed;shape=mxgraph.aws4.resourceIcon;resIcon=mxgraph.aws4.ec2;" vertex="1" parent="QsPpRkAd5M4TZ6T4kaq--11">
          <mxGeometry x="111.5" y="90" width="38" height="38" as="geometry" />
        </mxCell>
        <mxCell id="QsPpRkAd5M4TZ6T4kaq--15" value="" style="sketch=0;points=[[0,0,0],[0.25,0,0],[0.5,0,0],[0.75,0,0],[1,0,0],[0,1,0],[0.25,1,0],[0.5,1,0],[0.75,1,0],[1,1,0],[0,0.25,0],[0,0.5,0],[0,0.75,0],[1,0.25,0],[1,0.5,0],[1,0.75,0]];outlineConnect=0;fontColor=#232F3E;fillColor=#ED7100;strokeColor=#ffffff;dashed=0;verticalLabelPosition=bottom;verticalAlign=top;align=center;html=1;fontSize=12;fontStyle=0;aspect=fixed;shape=mxgraph.aws4.resourceIcon;resIcon=mxgraph.aws4.ec2;" vertex="1" parent="QsPpRkAd5M4TZ6T4kaq--11">
          <mxGeometry x="111.5" y="40" width="38" height="38" as="geometry" />
        </mxCell>
        <mxCell id="QsPpRkAd5M4TZ6T4kaq--16" value="Lab MailServer Instance" style="text;html=1;align=center;verticalAlign=middle;resizable=0;points=[];autosize=1;strokeColor=none;fillColor=none;" vertex="1" parent="QsPpRkAd5M4TZ6T4kaq--11">
          <mxGeometry x="161" y="94" width="150" height="30" as="geometry" />
        </mxCell>
        <mxCell id="QsPpRkAd5M4TZ6T4kaq--17" value="Lab WindowsServer Instance" style="text;html=1;align=center;verticalAlign=middle;resizable=0;points=[];autosize=1;strokeColor=none;fillColor=none;" vertex="1" parent="QsPpRkAd5M4TZ6T4kaq--11">
          <mxGeometry x="159" y="43" width="180" height="30" as="geometry" />
        </mxCell>
        <mxCell id="QsPpRkAd5M4TZ6T4kaq--18" value="port:3306" style="text;html=1;align=center;verticalAlign=middle;resizable=0;points=[];autosize=1;strokeColor=none;fillColor=none;" vertex="1" parent="QsPpRkAd5M4TZ6T4kaq--4">
          <mxGeometry x="193" y="393" width="70" height="30" as="geometry" />
        </mxCell>
        <mxCell id="QsPpRkAd5M4TZ6T4kaq--19" value="Private subnets&amp;nbsp; &amp;nbsp; &amp;nbsp; &amp;nbsp;(10.0.2.0/24, 10.0.3.0/24)" style="points=[[0,0],[0.25,0],[0.5,0],[0.75,0],[1,0],[1,0.25],[1,0.5],[1,0.75],[1,1],[0.75,1],[0.5,1],[0.25,1],[0,1],[0,0.75],[0,0.5],[0,0.25]];outlineConnect=0;gradientColor=none;html=1;whiteSpace=wrap;fontSize=12;fontStyle=0;container=1;pointerEvents=0;collapsible=0;recursiveResize=0;shape=mxgraph.aws4.group;grIcon=mxgraph.aws4.group_security_group;grStroke=0;strokeColor=#00A4A6;fillColor=#E6F6F7;verticalAlign=top;align=left;spacingLeft=30;fontColor=#147EBA;dashed=0;" vertex="1" parent="QsPpRkAd5M4TZ6T4kaq--4">
          <mxGeometry x="60" y="420" width="410" height="85" as="geometry" />
        </mxCell>
        <mxCell id="QsPpRkAd5M4TZ6T4kaq--20" value="" style="sketch=0;outlineConnect=0;fontColor=#232F3E;gradientColor=none;fillColor=#C925D1;strokeColor=none;dashed=0;verticalLabelPosition=bottom;verticalAlign=top;align=center;html=1;fontSize=12;fontStyle=0;aspect=fixed;pointerEvents=1;shape=mxgraph.aws4.rds_multi_az;" vertex="1" parent="QsPpRkAd5M4TZ6T4kaq--19">
          <mxGeometry x="113" y="40.00000000000001" width="38" height="28.26" as="geometry" />
        </mxCell>
        <mxCell id="QsPpRkAd5M4TZ6T4kaq--21" value="Lab Database" style="text;html=1;align=center;verticalAlign=middle;resizable=0;points=[];autosize=1;strokeColor=none;fillColor=none;" vertex="1" parent="QsPpRkAd5M4TZ6T4kaq--19">
          <mxGeometry x="162" y="39.129999999999995" width="100" height="30" as="geometry" />
        </mxCell>
        <mxCell id="QsPpRkAd5M4TZ6T4kaq--22" value="" style="endArrow=classic;startArrow=classic;html=1;rounded=0;entryX=0.5;entryY=1;entryDx=0;entryDy=0;entryPerimeter=0;strokeColor=#336600;" edge="1" parent="QsPpRkAd5M4TZ6T4kaq--4" source="QsPpRkAd5M4TZ6T4kaq--20" target="QsPpRkAd5M4TZ6T4kaq--13">
          <mxGeometry width="50" height="50" relative="1" as="geometry">
            <mxPoint x="185" y="445" as="sourcePoint" />
            <mxPoint x="235" y="395" as="targetPoint" />
          </mxGeometry>
        </mxCell>
        <mxCell id="QsPpRkAd5M4TZ6T4kaq--23" value="" style="sketch=0;outlineConnect=0;fontColor=#232F3E;gradientColor=none;fillColor=#8C4FFF;strokeColor=none;dashed=0;verticalLabelPosition=bottom;verticalAlign=top;align=center;html=1;fontSize=12;fontStyle=0;aspect=fixed;pointerEvents=1;shape=mxgraph.aws4.internet_gateway;" vertex="1" parent="QsPpRkAd5M4TZ6T4kaq--4">
          <mxGeometry x="241" y="700" width="48" height="48" as="geometry" />
        </mxCell>
        <mxCell id="QsPpRkAd5M4TZ6T4kaq--24" value="" style="endArrow=classic;startArrow=classic;html=1;rounded=0;strokeColor=#336600;exitX=0.5;exitY=1;exitDx=0;exitDy=0;" edge="1" parent="QsPpRkAd5M4TZ6T4kaq--4" source="QsPpRkAd5M4TZ6T4kaq--7" target="QsPpRkAd5M4TZ6T4kaq--23">
          <mxGeometry width="50" height="50" relative="1" as="geometry">
            <mxPoint x="279" y="129" as="sourcePoint" />
            <mxPoint x="280" y="169" as="targetPoint" />
          </mxGeometry>
        </mxCell>
        <mxCell id="QsPpRkAd5M4TZ6T4kaq--25" value="Firewall Subnet&lt;div&gt;&amp;nbsp; (10.0.4.0/24)&lt;/div&gt;" style="sketch=0;outlineConnect=0;gradientColor=none;html=1;whiteSpace=wrap;fontSize=12;fontStyle=0;shape=mxgraph.aws4.group;grIcon=mxgraph.aws4.group_subnet;strokeColor=#879196;fillColor=none;verticalAlign=top;align=left;spacingLeft=30;fontColor=#879196;dashed=0;" vertex="1" parent="QsPpRkAd5M4TZ6T4kaq--4">
          <mxGeometry x="60" y="80" width="410" height="70" as="geometry" />
        </mxCell>
        <mxCell id="QsPpRkAd5M4TZ6T4kaq--26" value="" style="sketch=0;points=[[0,0,0],[0.25,0,0],[0.5,0,0],[0.75,0,0],[1,0,0],[0,1,0],[0.25,1,0],[0.5,1,0],[0.75,1,0],[1,1,0],[0,0.25,0],[0,0.5,0],[0,0.75,0],[1,0.25,0],[1,0.5,0],[1,0.75,0]];outlineConnect=0;fontColor=#232F3E;fillColor=#DD344C;strokeColor=#ffffff;dashed=0;verticalLabelPosition=bottom;verticalAlign=top;align=center;html=1;fontSize=12;fontStyle=0;aspect=fixed;shape=mxgraph.aws4.resourceIcon;resIcon=mxgraph.aws4.network_firewall;" vertex="1" parent="QsPpRkAd5M4TZ6T4kaq--4">
          <mxGeometry x="239" y="94" width="42" height="42" as="geometry" />
        </mxCell>
        <mxCell id="QsPpRkAd5M4TZ6T4kaq--27" value="Lab Firewall" style="text;html=1;align=center;verticalAlign=middle;resizable=0;points=[];autosize=1;strokeColor=none;fillColor=none;" vertex="1" parent="QsPpRkAd5M4TZ6T4kaq--4">
          <mxGeometry x="279" y="100" width="90" height="30" as="geometry" />
        </mxCell>
        <mxCell id="QsPpRkAd5M4TZ6T4kaq--28" value="" style="sketch=0;outlineConnect=0;fontColor=#232F3E;gradientColor=none;fillColor=#8C4FFF;strokeColor=none;dashed=0;verticalLabelPosition=bottom;verticalAlign=top;align=center;html=1;fontSize=12;fontStyle=0;aspect=fixed;pointerEvents=1;shape=mxgraph.aws4.internet_gateway;" vertex="1" parent="QsPpRkAd5M4TZ6T4kaq--4">
          <mxGeometry x="239" y="-9" width="48" height="48" as="geometry" />
        </mxCell>
        <mxCell id="QsPpRkAd5M4TZ6T4kaq--29" value="VPC Internet Gateway Lab" style="text;html=1;align=center;verticalAlign=middle;resizable=0;points=[];autosize=1;strokeColor=none;fillColor=none;" vertex="1" parent="QsPpRkAd5M4TZ6T4kaq--4">
          <mxGeometry x="279" width="170" height="30" as="geometry" />
        </mxCell>
        <mxCell id="QsPpRkAd5M4TZ6T4kaq--30" value="" style="endArrow=classic;startArrow=classic;html=1;rounded=0;strokeColor=#336600;" edge="1" parent="QsPpRkAd5M4TZ6T4kaq--4" source="QsPpRkAd5M4TZ6T4kaq--28" target="QsPpRkAd5M4TZ6T4kaq--25">
          <mxGeometry width="50" height="50" relative="1" as="geometry">
            <mxPoint x="222" y="370" as="sourcePoint" />
            <mxPoint x="270" y="80" as="targetPoint" />
          </mxGeometry>
        </mxCell>
        <mxCell id="QsPpRkAd5M4TZ6T4kaq--31" value="" style="endArrow=classic;startArrow=classic;html=1;rounded=0;strokeColor=#336600;entryX=0.5;entryY=0;entryDx=0;entryDy=0;" edge="1" parent="QsPpRkAd5M4TZ6T4kaq--4" source="QsPpRkAd5M4TZ6T4kaq--25" target="QsPpRkAd5M4TZ6T4kaq--11">
          <mxGeometry width="50" height="50" relative="1" as="geometry">
            <mxPoint x="140" y="150" as="sourcePoint" />
            <mxPoint x="140" y="190" as="targetPoint" />
          </mxGeometry>
        </mxCell>
        <mxCell id="8j7itKOxfAzFq8c3totr-3" value="" style="verticalLabelPosition=bottom;sketch=0;aspect=fixed;html=1;verticalAlign=top;strokeColor=none;align=center;outlineConnect=0;shape=mxgraph.citrix.laptop_1;" vertex="1" parent="QsPpRkAd5M4TZ6T4kaq--1">
          <mxGeometry x="53" y="250" width="41" height="34.69" as="geometry" />
        </mxCell>
        <mxCell id="8j7itKOxfAzFq8c3totr-4" value="" style="ellipse;shape=cloud;whiteSpace=wrap;html=1;" vertex="1" parent="QsPpRkAd5M4TZ6T4kaq--1">
          <mxGeometry x="22" y="330" width="113" height="80" as="geometry" />
        </mxCell>
        <mxCell id="8j7itKOxfAzFq8c3totr-5" value="" style="shape=flexArrow;endArrow=classic;html=1;rounded=0;" edge="1" parent="QsPpRkAd5M4TZ6T4kaq--1">
          <mxGeometry width="50" height="50" relative="1" as="geometry">
            <mxPoint x="74" y="295" as="sourcePoint" />
            <mxPoint x="74" y="335" as="targetPoint" />
          </mxGeometry>
        </mxCell>
        <mxCell id="8j7itKOxfAzFq8c3totr-7" value="" style="shape=flexArrow;endArrow=classic;html=1;rounded=0;" edge="1" parent="QsPpRkAd5M4TZ6T4kaq--1">
          <mxGeometry width="50" height="50" relative="1" as="geometry">
            <mxPoint x="130" y="366" as="sourcePoint" />
            <mxPoint x="199" y="366" as="targetPoint" />
          </mxGeometry>
        </mxCell>
        <mxCell id="8j7itKOxfAzFq8c3totr-11" value="Kali Linux&lt;div&gt;attacker&lt;/div&gt;" style="text;html=1;align=center;verticalAlign=middle;resizable=0;points=[];autosize=1;strokeColor=none;fillColor=none;" vertex="1" parent="QsPpRkAd5M4TZ6T4kaq--1">
          <mxGeometry x="41" y="215" width="80" height="40" as="geometry" />
        </mxCell>
      </root>
    </mxGraphModel>
  </diagram>
</mxfile>
